<svg width="284" height="57" viewBox="0 0 284 57" fill="none" xmlns="http://www.w3.org/2000/svg">
<path d="M151.09 23.57H144.33V17.33H151.09V12.84C151.09 7.84 154.8 5.3 158.83 5.3H166.76V11.47H158.24V17.32H167.08V23.56H158.24V50.8H151.09V23.57Z" fill="white"/>
<path d="M174.55 5.3H181.7V50.8H174.55V5.3Z" fill="white"/>
<path d="M188.79 34.03C188.79 24.08 196.13 16.74 206.41 16.74C216.69 16.74 224.03 24.09 224.03 34.03C224.03 44.04 216.68 51.39 206.41 51.39C196.14 51.39 188.79 44.04 188.79 34.03ZM216.8 34.03C216.8 27.72 212.31 23.43 206.4 23.43C200.49 23.43 196 27.73 196 34.03C196 40.4 200.49 44.62 206.4 44.62C212.31 44.62 216.8 40.4 216.8 34.03Z" fill="white"/>
<path d="M228.11 18.04V17.33H235.52L241.96 41.32L248.92 17.33H257.17L264.13 41.32L270.5 17.33H277.78V18.04L268.16 50.8H260.36L253.08 26.42L245.67 50.8H237.8L228.11 18.04Z" fill="white"/>
<path d="M5.69 17.33H12.84V21.88C14.34 19.28 17.46 16.75 22.72 16.75C30.98 16.75 35.33 22.79 35.33 29.56V50.8H28.18V31.69C28.18 27.27 25.78 23.57 20.58 23.57C15.51 23.57 12.84 27.47 12.84 31.69V50.8H5.69V17.33ZM42.48 34.03C42.48 24.08 49.44 16.74 59.58 16.74C68.49 16.74 76.41 22.72 76.41 34.03V36.63H49.76C50.67 41.63 54.38 44.89 59.71 44.89C63.29 44.89 66.28 43.2 67.71 40.47H75.58C73.43 47.36 67.39 51.39 59.65 51.39C49.37 51.39 42.48 44.04 42.48 34.03ZM69.07 30.65C67.9 25.32 63.87 23.11 59.64 23.11C54.64 23.11 51.06 26.03 49.89 30.65H69.07ZM123.2 44.95V23.57H116.96V17.33H123.33V8.75H130.35V17.33H140.03V23.57H130.35V44.3H139.52V50.8H129.38C124.96 50.8 123.2 48.33 123.2 44.95ZM97.72 28.28L91.85 20.24C90.52 18.41 88.39 17.33 86.13 17.33H79.17V23.57H85.84L93.5 34.07L85.84 44.57H79.17V50.81H81.28H86.13C88.39 50.81 90.52 49.73 91.85 47.9L97.72 39.86L101.95 34.07L97.72 28.28Z" fill="url(#paint0_linear_1_2)"/>
<path d="M114.17 17.33H105.72L99.48 25.88L103.7 31.66L114.17 17.33Z" fill="url(#paint1_linear_1_2)"/>
<path d="M99.48 42.26L105.72 50.8H114.17L103.7 36.47L99.48 42.26Z" fill="url(#paint2_linear_1_2)"/>
<defs>
<linearGradient id="paint0_linear_1_2" x1="123.549" y1="14.6486" x2="10.3626" y2="57.7913" gradientUnits="userSpaceOnUse">
<stop stop-color="#7E22CE"/>
<stop offset="0.2413" stop-color="#7821C7"/>
<stop offset="0.5866" stop-color="#6820B4"/>
<stop offset="0.9929" stop-color="#4D1D96"/>
<stop offset="1" stop-color="#4C1D95"/>
</linearGradient>
<linearGradient id="paint1_linear_1_2" x1="114.214" y1="10.6436" x2="104.162" y2="25.548" gradientUnits="userSpaceOnUse">
<stop stop-color="#7E22CE"/>
<stop offset="0.2413" stop-color="#7821C7"/>
<stop offset="0.5866" stop-color="#6820B4"/>
<stop offset="0.9929" stop-color="#4D1D96"/>
<stop offset="1" stop-color="#4C1D95"/>
</linearGradient>
<linearGradient id="paint2_linear_1_2" x1="115.525" y1="56.205" x2="102.7" y2="41.3006" gradientUnits="userSpaceOnUse">
<stop stop-color="#7E22CE"/>
<stop offset="0.2413" stop-color="#7821C7"/>
<stop offset="0.5866" stop-color="#6820B4"/>
<stop offset="0.9929" stop-color="#4D1D96"/>
<stop offset="1" stop-color="#4C1D95"/>
</linearGradient>
</defs>
</svg>
